<svg id="组件_3_2" data-name="组件 3 – 2" xmlns="http://www.w3.org/2000/svg" width="75" height="75" viewBox="0 0 75 75">
  <circle id="椭圆_2" data-name="椭圆 2" cx="37.5" cy="37.5" r="37.5" fill="#fff"/>
  <text id="App_Store" data-name="App Store" transform="translate(16.595 60.706)" fill="#606060" font-size="10.754" font-family="MyriadPro-Regular, Myriad Pro"><tspan x="0" y="0">App Store</tspan></text>
  <g id="组_2" data-name="组 2" transform="translate(-292.053 -113.531)">
    <path id="路径_5" data-name="路径 5" d="M340.051,142.8a10.012,10.012,0,0,1,4.77-8.4,10.252,10.252,0,0,0-8.08-4.37c-3.4-.356-6.7,2.037-8.423,2.037-1.766,0-4.438-2-7.307-1.943a10.764,10.764,0,0,0-9.054,5.523c-3.914,6.778-.995,16.739,2.755,22.221,1.877,2.682,4.069,5.679,6.939,5.571,2.807-.116,3.854-1.788,7.244-1.788,3.359,0,4.344,1.788,7.271,1.721,3.013-.049,4.909-2.695,6.719-5.4a22.067,22.067,0,0,0,3.075-6.26,9.677,9.677,0,0,1-5.909-8.9" fill="#d9d9d9"/>
    <path id="路径_6" data-name="路径 6" d="M334.521,126.421a9.836,9.836,0,0,0,2.254-7.066,10.028,10.028,0,0,0-6.489,3.36,9.374,9.374,0,0,0-2.317,6.8,8.3,8.3,0,0,0,6.552-3.1" fill="#d9d9d9"/>
  </g>
</svg>
