<?xml version="1.0" encoding="utf-8"?>
<!-- Generator: Adobe Illustrator 23.1.0, SVG Export Plug-In . SVG Version: 6.00 Build 0)  -->
<svg version="1.1" id="Layer_1" xmlns="http://www.w3.org/2000/svg" xmlns:xlink="http://www.w3.org/1999/xlink" x="0px" y="0px"
	 viewBox="0 0 512 512" enable-background="new 0 0 512 512" xml:space="preserve">
<g>
	<g>
		<g>
			<path fill="#58A4EF" d="M511.7,313.8c-0.1-0.3-0.1-0.6-0.2-0.9l-1.5-5.3c-6.1-22.7-44.3-44.8-67-38.7c-4.5,1.2-7.3,5.9-6,10.5
				c1.2,4.5,5.9,7.3,10.5,6c13.6-3.7,42.5,13,46.2,26.8l1.4,4.8c0,0.4,0,0.7,0,0.8c-3.9,1.3-22.1,7.1-32.2,9.8
				c-10.4,2.8-21.2,6.3-32.4,10.4c-4.3-31.8-13.1-64.7-26.2-113.4l-30.9-115.4c-6.9-25.8-29.8-36.2-47.9-31.3
				c-7.4,2-14,6.4-18.9,12.6L300,67c-6.8-25.5-30.3-36-48.1-31.3c-7.4,2-14.3,6.9-19.4,13.7c-3.8-7.6-9.6-13.8-16.9-17.9
				c-9.7-5.5-21.1-6.9-32.2-3.9c-11.1,3-20.3,9.8-26,19.4c-1.9,3.3-3.4,6.8-4.4,10.4c-0.5-0.3-1-0.6-1.5-0.9c-9.3-5-20.6-6-31.8-3
				c-11,3-20.2,10-25.9,19.9c-5.7,9.9-7.2,21.4-4.3,32.4l23.5,87.8c-5.6,7.2-17.8,24.5-24.5,48.2c-1.3,4.5,1.4,9.2,5.9,10.5
				c0.8,0.2,1.6,0.3,2.3,0.3c3.7,0,7.1-2.5,8.2-6.2c3.6-12.7,9.1-23.3,13.8-31.1l25.9,96.6c1.2,4.6,5.9,7.3,10.5,6
				c4.6-1.2,7.3-5.9,6-10.4L106,101.3c-1.8-6.6-0.9-13.5,2.6-19.4c3.4-5.9,8.9-10.2,15.5-11.9c7-1.9,13.9-1.3,19.4,1.6
				c5.8,3.1,9.9,8.8,12,16.5l46.4,173.1c1.2,4.5,5.9,7.3,10.4,6c4.6-1.2,7.3-5.9,6-10.5L169.8,75.4c-1.9-7-1-14,2.4-19.8
				c3.4-5.7,8.9-9.8,15.7-11.6c6.7-1.8,13.6-1,19.4,2.3c5.9,3.3,10.1,8.9,11.9,15.8l48.6,181.3c1.2,4.5,5.9,7.3,10.5,6
				c4.6-1.2,7.3-5.9,6-10.5l-42-156.6c-4.3-15.9,5.6-28,14-30.3c8.3-2.2,22.7,2.3,27.2,19.2l42,156.6c1.2,4.6,5.9,7.3,10.5,6
				c4.5-1.2,7.3-5.9,6-10.4l-26.5-98.9c-2.5-9.3-0.4-16.1,1.9-20.2c2.8-5.1,7.2-8.7,12.2-10.1c10.1-2.7,22.9,3.8,27,19.3l30.9,115.4
				c25.5,95.3,34.5,128.8,24.8,214.2L226.9,493C185.6,415,96.7,343.9,45.7,314.4c-9.1-5.2-25.2-15.6-28.6-17.8
				c0-0.2,0.1-0.4,0.2-0.8l2.6-4.4c3.2-5.6,12.6-11.1,23.8-14.1s22.1-2.9,27.7,0.4l40,23.1c4.1,2.3,9.3,0.9,11.7-3.1
				c2.4-4.1,1-9.3-3.1-11.7l-40-23.1c-9.6-5.5-24.8-6.3-40.6-2c-15.9,4.2-28.6,12.5-34.1,22l-2.9,4.8c-0.2,0.3-0.3,0.5-0.4,0.8
				c-3.7,8.2-2.1,16.2,4.4,21.6c0.2,0.2,0.5,0.4,0.8,0.6c0.8,0.5,19.5,12.6,30,18.7c50.5,29.1,139.2,100.3,177.4,177.1
				c1.3,3.2,4.5,5.2,7.9,5.2c0.7,0,1.4-0.1,2.1-0.3c0.1,0,0.2,0,0.2-0.1l197.7-53c3.4-0.9,5.9-3.8,6.3-7.2c4.7-39.3,5.8-68,3.4-95.6
				c12.3-4.5,23.8-8.4,34.9-11.3c11.7-3.1,32.9-10,33.8-10.3c0.3-0.1,0.6-0.2,0.9-0.4C509.5,330,513.2,322.7,511.7,313.8z"/>
			<path fill="#58A4EF" d="M103.3,29.9c1.5,3,4.5,4.7,7.6,4.7c1.3,0,2.6-0.3,3.8-0.9c4.2-2.1,5.9-7.2,3.8-11.5L110,5.2
				c-2.1-4.2-7.2-5.9-11.4-3.8c-4.2,2.1-5.9,7.2-3.8,11.4L103.3,29.9z"/>
			<path fill="#58A4EF" d="M300,25.7c8.4-9.1,20.2-9.8,27.1-5.8c7.6,4.4,13.9,18.6,5.7,32.8l0,0c-2.4,4.1-1,9.3,3.1,11.7
				c4.1,2.4,9.3,0.9,11.7-3.1c0,0,0,0,0,0l12.8-22.1c7.3-12.6,22.3-16.7,35-9.4c12.8,7.4,16.8,22.1,9.4,35l-4.1,7.1l-13.1,19.8
				c-2.6,3.9-1.5,9.2,2.4,11.8c1.5,1,3.1,1.4,4.7,1.4c2.8,0,5.5-1.3,7.1-3.8L415,81c0.1-0.1,0.1-0.2,0.1-0.2c0-0.1,0.1-0.1,0.2-0.2
				v0l0,0c9.4-16.3,24.2-15.5,34.9-9.3c5.9,3.4,10.2,8.9,11.9,15.5c1.8,6.6,0.9,13.5-2.6,19.4l-48.1,83.3c-2.4,4.1-0.9,9.3,3.1,11.7
				c1.3,0.8,2.8,1.1,4.3,1.1c2.9,0,5.8-1.5,7.4-4.3l48.1-83.3c5.7-9.9,7.2-21.4,4.3-32.4c-3-11-10-20.2-19.9-25.9
				c-11.1-6.4-22.8-7.9-33.2-4.9c0.1-14.6-7.6-28.5-21.7-36.6c-18.1-10.4-39.9-6.5-53.1,8.4c-3.1-7.9-8.5-14.4-15.2-18.3
				c-12.9-7.4-33.5-6.7-48.1,9c-3.2,3.5-3,8.8,0.5,12.1C291.4,29.3,296.8,29.1,300,25.7z"/>
			<path fill="#58A4EF" d="M53.7,66.2c1.7,1.7,3.8,2.5,6,2.5c2.2,0,4.4-0.8,6-2.5c3.3-3.3,3.3-8.7,0-12.1L48.7,37.1
				c-3.3-3.3-8.7-3.3-12.1,0s-3.3,8.7,0,12.1L53.7,66.2z"/>
			<path fill="#58A4EF" d="M34.1,119.9h17.1c4.7,0,8.5-3.8,8.5-8.5s-3.8-8.5-8.5-8.5H34.1c-4.7,0-8.5,3.8-8.5,8.5
				S29.4,119.9,34.1,119.9z"/>
			<path fill="#58A4EF" d="M34.1,179.7c0.9,0,1.8-0.1,2.7-0.4l25.6-8.5c4.5-1.5,6.9-6.3,5.4-10.8c-1.5-4.5-6.3-6.9-10.8-5.4
				L31.4,163c-4.5,1.5-6.9,6.3-5.4,10.8C27.2,177.4,30.6,179.7,34.1,179.7z"/>
		</g>
	</g>
</g>
</svg>
