<?xml version="1.0" encoding="utf-8"?>
<!-- Generator: Adobe Illustrator 23.1.0, SVG Export Plug-In . SVG Version: 6.00 Build 0)  -->
<svg version="1.1" id="Capa_1" xmlns="http://www.w3.org/2000/svg" xmlns:xlink="http://www.w3.org/1999/xlink" x="0px" y="0px"
	 viewBox="0 0 512 512" enable-background="new 0 0 512 512" xml:space="preserve">
<g>
	<g>
		<path fill="#58A4EF" d="M499.5,93h-118c13-19,14.2-44.7,1.1-65.3c-17.5-27.7-54.4-36-82.1-18.4c-7,4.4-18.7,14.8-39.3,53.5
			c-1.8,3.5-3.6,6.9-5.3,10.1c-1.7-3.3-3.4-6.7-5.3-10.1C230.2,24,218.5,13.6,211.4,9.2c-27.7-17.5-64.5-9.3-82.1,18.4
			c-8.5,13.4-11.3,29.4-7.8,44.9c1.7,7.4,4.7,14.4,8.9,20.5h-118v145.2H30V512h452V238.2h17.5V93L499.5,93z M316.6,34.6
			c4.8-3,10.2-4.6,15.7-4.6c2.2,0,4.4,0.2,6.5,0.7c7.7,1.7,14.2,6.3,18.5,13c8.7,13.7,4.6,32-9.1,40.7c-8.3,5.2-38.5,8.2-68.7,8.6
			C292.7,65.9,308.3,39.8,316.6,34.6z M154.7,43.7c4.2-6.7,10.8-11.3,18.5-13c2.2-0.5,4.4-0.7,6.5-0.7c5.5,0,10.9,1.5,15.7,4.6
			c8.3,5.2,23.9,31.4,37.2,58.4c-15.1-0.2-30.2-1.1-42.6-2.5s-22-3.5-26.1-6.1c-6.6-4.2-11.3-10.8-13-18.4
			C149.1,58.2,150.5,50.3,154.7,43.7z M195.3,482H60V238.2h135.3V482z M195.3,208.2H42.5V123h152.8L195.3,208.2L195.3,208.2z
			 M286.7,482h-61.4V123h61.4V482z M452,482L452,482H316.7V238.2H452V482z M469.5,208.2H316.7V123h152.8V208.2z"/>
	</g>
</g>
</svg>
