<svg id="组件_1_2" data-name="组件 1 – 2" xmlns="http://www.w3.org/2000/svg" xmlns:xlink="http://www.w3.org/1999/xlink" width="226.239" height="51.41" viewBox="0 0 226.239 51.41">
  <defs>
    <linearGradient id="linear-gradient" x1="0.296" y1="-0.06" x2="0.552" y2="0.928" gradientUnits="objectBoundingBox">
      <stop offset="0" stop-color="#006884"/>
      <stop offset="1" stop-color="#8ad1d0"/>
    </linearGradient>
    <linearGradient id="linear-gradient-2" x1="-0.077" y1="0.161" x2="0.917" y2="0.865" gradientUnits="objectBoundingBox">
      <stop offset="0" stop-color="#24bbb6"/>
      <stop offset="1" stop-color="#dbe692"/>
    </linearGradient>
    <linearGradient id="linear-gradient-3" x1="0.5" y1="1.051" x2="0.5" y2="-0.046" gradientUnits="objectBoundingBox">
      <stop offset="0" stop-color="#fcc072"/>
      <stop offset="1" stop-color="#f58a5b"/>
    </linearGradient>
    <linearGradient id="linear-gradient-4" x1="0.109" y1="1.176" x2="0.905" y2="0.115" gradientUnits="objectBoundingBox">
      <stop offset="0" stop-color="#712b8f"/>
      <stop offset="1" stop-color="#ea1d27"/>
    </linearGradient>
  </defs>
  <path id="路径_34" data-name="路径 34" d="M0,34.5H0Z" transform="translate(0 -10.156)" fill="#fff"/>
  <g id="组_6" data-name="组 6" transform="translate(-16.449 -21.289)">
    <path id="路径_9" data-name="路径 9" d="M48.06,45.642V26.935A2.008,2.008,0,0,1,49.9,24.959a3.145,3.145,0,0,1,1.69.472l34.3,18.752a1.517,1.517,0,0,1,0,2.917l-34.3,18.754a3.146,3.146,0,0,1-1.69.471A2.006,2.006,0,0,1,48.06,64.35Z" fill-rule="evenodd" fill="url(#linear-gradient)"/>
    <path id="路径_10" data-name="路径 10" d="M70.344,45.764,49.576,25a1.454,1.454,0,0,1,.323-.037,3.145,3.145,0,0,1,1.69.472L76.861,39.246Z" fill-rule="evenodd" fill="url(#linear-gradient-2)"/>
    <path id="路径_11" data-name="路径 11" d="M76.705,52.125l-6.361-6.361,6.517-6.518,9.031,4.937a1.517,1.517,0,0,1,0,2.917Z" fill-rule="evenodd" fill="url(#linear-gradient-3)"/>
    <path id="路径_12" data-name="路径 12" d="M49.788,66.321l.019-.019L70.344,45.764l6.361,6.361L51.589,65.854a3.146,3.146,0,0,1-1.69.471C49.862,66.325,49.825,66.324,49.788,66.321Z" fill-rule="evenodd" fill="url(#linear-gradient-4)"/>
    <path id="路径_13" data-name="路径 13" d="M157.084,70.98a9.9,9.9,0,0,1-1.972-2.7l2.864-1.219a6.054,6.054,0,0,0,.876,1.351,3.918,3.918,0,0,0,2.911,1.342,3.85,3.85,0,0,0,3.03-1.426,5.042,5.042,0,0,0,.821-2.986V64.226c-2.045,2.63-6.517,2.263-9.019-.458a7.887,7.887,0,0,1,.055-10.534c2.669-2.644,6.629-2.978,8.959-.474l.005.005V51.5h3.1V64.991c0,3.433-1.26,5.373-2.825,6.5a7.372,7.372,0,0,1-4.165,1.2,6.865,6.865,0,0,1-4.643-1.719Zm74.391.744h0l3-7.1-5.3-12.308h3.02l3.78,8.766,3.7-8.766h3.021L234.5,71.724Zm-14.345-6.78h0a4.77,4.77,0,0,1-1.331-3.3,4.154,4.154,0,0,1,1.1-2.9,6.666,6.666,0,0,1,4.968-1.858,6.475,6.475,0,0,1,3.205.735,2.918,2.918,0,0,0-3.134-3,3.034,3.034,0,0,0-2.947,1.913l-2.713-1.1a5.6,5.6,0,0,1,5.594-3.552A5.784,5.784,0,0,1,228,58.408v7.454h-2.961V64.53a5.042,5.042,0,0,1-1.622,1.286,5.694,5.694,0,0,1-2.479.5,5.606,5.606,0,0,1-3.808-1.374Zm-94.7-6.408h0A7.395,7.395,0,1,1,129.827,66a7.392,7.392,0,0,1-7.394-7.465Zm16.05,0h0A7.394,7.394,0,1,1,145.876,66a7.39,7.39,0,0,1-7.393-7.465ZM102.4,62.46h0A11.55,11.55,0,0,1,118.56,45.954l-2.216,2.313a8.074,8.074,0,0,0-11.45.155,8.587,8.587,0,0,0-.075,11.87,8.168,8.168,0,0,0,11.7.194,6.9,6.9,0,0,0,1.669-3.986h-7.5V53.329h10.537a12.922,12.922,0,0,1,.175,2.416,10.665,10.665,0,0,1-2.872,7.159,10.552,10.552,0,0,1-7.717,3.074,12.045,12.045,0,0,1-8.4-3.518Zm75.066,1.331h0a8.073,8.073,0,0,1,0-10.58,6.493,6.493,0,0,1,9.686-.017,11.315,11.315,0,0,1,1.9,3.43L179.2,60.776a3.845,3.845,0,0,0,3.505,2.273,4.063,4.063,0,0,0,3.683-2.076l2.579,1.735h0c-.3.391-.662.779-.938,1.083a7.48,7.48,0,0,1-10.557,0Zm18.52,2.085h0V46.223h6.324c3.811,0,6.688,2.666,6.688,5.951a6.032,6.032,0,0,1-6.1,5.952h-3.911v7.75Zm14.973,0h0V46.22h3V65.876Zm-40.137-.32h0V43.561h3.282V65.556Zm54.224-5.444h0a5.324,5.324,0,0,0-2.825-.72c-2.133,0-3.337,1.078-3.337,2.257a2.183,2.183,0,0,0,2.436,1.966,3.748,3.748,0,0,0,3.726-3.5Zm-91.1-1.578h0a4.142,4.142,0,1,0-4.127,4.505,4.313,4.313,0,0,0,4.127-4.505Zm16.048,0h0a4.142,4.142,0,1,0-4.126,4.505A4.313,4.313,0,0,0,150,58.534Zm15.685,1.357h0a4,4,0,0,0,.117-.533.2.2,0,0,0,.01-.07,4.73,4.73,0,0,0,0-1.534.4.4,0,0,0-.015-.1A3.934,3.934,0,0,0,165.63,57a4.05,4.05,0,0,0-3.79-2.96,4.523,4.523,0,0,0,.058,8.986,4.123,4.123,0,0,0,3.789-3.132Zm13-1.621h0l6.58-2.79a3.035,3.035,0,0,0-2.725-1.541c-2.5,0-4.219,2.847-3.855,4.331Zm27.253-6.026h0a3.145,3.145,0,0,0-3.352-3.11h-3.6v6.219h3.773A3.138,3.138,0,0,0,205.944,52.244Z" fill="#606060" fill-rule="evenodd"/>
    <path id="路径_14" data-name="路径 14" d="M233.768,68.136V68.13l-.009,0,0,0v-.015l0,0,.006,0,0,0-.009,0a.01.01,0,0,0-.011.009v.017c0,.006.005.008.011.008Z" fill="#fff" fill-rule="evenodd"/>
    <path id="路径_15" data-name="路径 15" d="M233.795,68.138l-.01-.013a.008.008,0,0,0,.007-.009v0s-.005-.008-.011-.008h-.009v.033h0v-.013h0l.009.013Zm-.008-.022h0s0,0-.006,0h-.005v-.01h.005l.006,0Z" fill="#fff" fill-rule="evenodd"/>
    <path id="路径_16" data-name="路径 16" d="M233.818,68.133H233.8v-.009h.012v-.005H233.8V68.11h.012V68.1h-.02v.033h.02Z" fill="#fff" fill-rule="evenodd"/>
    <path id="路径_17" data-name="路径 17" d="M233.846,68.138l-.009-.033h-.007l-.01.033h.006l0-.01h.008l0,.01Zm-.009-.016h-.007l0-.008v0Z" fill="#fff" fill-rule="evenodd"/>
    <path id="路径_18" data-name="路径 18" d="M233.865,68.1h-.021v.005h.008v.028h.005V68.11h.007Z" fill="#fff" fill-rule="evenodd"/>
    <path id="路径_19" data-name="路径 19" d="M233.888,68.133h-.015v-.009h.012v-.005h-.012V68.11h.013V68.1h-.021v.033h.021Z" fill="#fff" fill-rule="evenodd"/>
    <path id="路径_20" data-name="路径 20" d="M233.914,68.128v-.014a.01.01,0,0,0-.01-.009h-.012v.033h.012a.01.01,0,0,0,.01-.01Zm-.005,0h0s0,.005-.007.005h0V68.11h0l.007,0Z" fill="#fff" fill-rule="evenodd"/>
    <path id="路径_21" data-name="路径 21" d="M233.953,68.129v0l-.005-.006,0-.006h0s0-.008-.009-.008h-.01v.033h.01c.006,0,.011,0,.011-.009Zm-.008-.015h0l0,0h0V68.11h0l0,0Zm0,.014h0l0,.005h0v-.011h0l0,0Z" fill="#fff" fill-rule="evenodd"/>
    <path id="路径_22" data-name="路径 22" d="M233.979,68.1h-.007l-.005.012v0l-.005-.012h-.007l.009.02v.013h.007v-.013Z" fill="#fff" fill-rule="evenodd"/>
    <path id="路径_23" data-name="路径 23" d="M234.026,68.13h-.02v-.041H234v.049h.028Z" fill="#fff" fill-rule="evenodd"/>
    <path id="路径_24" data-name="路径 24" d="M234.062,68.126V68.1c0-.008-.009-.012-.017-.012s-.016,0-.016.012v.026c0,.008.009.012.016.012s.017,0,.017-.012Zm-.009,0h0a.008.008,0,0,1-.008.007.008.008,0,0,1-.007-.007V68.1s0,0,.007,0,.008,0,.008,0Z" fill="#fff" fill-rule="evenodd"/>
    <path id="路径_25" data-name="路径 25" d="M234.1,68.14v-.03h-.016v.01h.008v.008l-.008,0-.006,0V68.1s0,0,.008,0l.009,0,.005-.007a.016.016,0,0,0-.014-.006c-.008,0-.018,0-.018.013v.025c0,.008.008.012.016.012h.011Z" fill="#fff" fill-rule="evenodd"/>
    <path id="路径_26" data-name="路径 26" d="M234.139,68.126V68.1c0-.008-.008-.012-.016-.012s-.017,0-.017.012v.026c0,.008.009.012.017.012s.016,0,.016-.012Zm-.008,0h0a.008.008,0,0,1-.016,0V68.1s0,0,.008,0,.008,0,.008,0Z" fill="#fff" fill-rule="evenodd"/>
    <path id="路径_27" data-name="路径 27" d="M234.212,68.138v-.049H234.2l-.016.036-.017-.036h-.007v.049h.008v-.024l0-.007.015.031h.008l.012-.029v.029Z" fill="#fff" fill-rule="evenodd"/>
    <path id="路径_28" data-name="路径 28" d="M234.258,68.138l-.015-.049h-.011l-.014.049h.009l0-.014h.012l.005.014Zm-.016-.022h-.008l0-.012V68.1l0,.006Z" fill="#fff" fill-rule="evenodd"/>
    <path id="路径_29" data-name="路径 29" d="M234.291,68.128a.017.017,0,0,0-.009-.018s-.012,0-.012-.009,0,0,.006,0l.009,0,0-.007a.018.018,0,0,0-.014-.005.012.012,0,0,0-.014.013.019.019,0,0,0,.009.015s.012,0,.011.009a.007.007,0,0,1-.007.007.017.017,0,0,1-.011-.007l-.005.007a.019.019,0,0,0,.016.006A.018.018,0,0,0,234.291,68.128Z" fill="#fff" fill-rule="evenodd"/>
    <path id="路径_30" data-name="路径 30" d="M234.325,68.089h-.033V68.1h.012v.042h.009V68.1h.01Z" fill="#fff" fill-rule="evenodd"/>
    <path id="路径_31" data-name="路径 31" d="M234.36,68.13h-.021v-.015h.019v-.008h-.019V68.1h.019l0-.007h-.031v.049h.031Z" fill="#fff" fill-rule="evenodd"/>
    <path id="路径_32" data-name="路径 32" d="M234.4,68.138l-.014-.021a.012.012,0,0,0,.009-.012v0c0-.009-.007-.012-.015-.012h-.014v.049h.008V68.12h0l.012.018Zm-.013-.034h0c0,.006,0,.006-.007.006h-.006V68.1h.006l.007,0Z" fill="#fff" fill-rule="evenodd"/>
  </g>
  <text id="GET_IT_ON" data-name="GET IT ON" transform="translate(82.666 11)" fill="#606060" font-size="14.666" font-family="MyriadPro-Regular, Myriad Pro"><tspan x="0" y="0">GET IT ON</tspan></text>
</svg>
