<?xml version="1.0" encoding="utf-8"?>
<!-- Generator: Adobe Illustrator 23.1.0, SVG Export Plug-In . SVG Version: 6.00 Build 0)  -->
<svg version="1.1" id="Capa_1" xmlns="http://www.w3.org/2000/svg" xmlns:xlink="http://www.w3.org/1999/xlink" x="0px" y="0px"
	 viewBox="0 0 512 512" enable-background="new 0 0 512 512" xml:space="preserve">
<g>
	<g>
		<path fill="#58A4EF" d="M504.4,373.1h-26.8V101.2c0-17-13.7-30.7-30.7-30.7H62.7c-17,0-30.7,13.7-30.7,30.7v271.9H7.6
			c-4.2,0-7.6,3.4-7.6,7.6v16.8c0,24.3,19.7,44,44,44h286.5c4.2,0,7.6-3.4,7.6-7.6s-3.4-7.6-7.6-7.6H44c-15.9,0-28.8-12.9-28.8-28.8
			v-9.2h24.4h154.8c0.3,14.7,12.3,26.6,27.1,26.6h68.9c14.8,0,26.8-11.9,27.1-26.6H470h26.8v9.2c0,15.9-12.9,28.8-28.8,28.8H366
			c-4.2,0-7.6,3.4-7.6,7.6s3.4,7.6,7.6,7.6h102c24.3,0,44-19.7,44-44v-16.8C512,376.5,508.6,373.1,504.4,373.1z M290.5,399.7h-68.9
			c-6.4,0-11.6-5.1-11.9-11.4h92.7C302.1,394.6,296.9,399.7,290.5,399.7z M462.4,373.1H47.2V101.2c0-8.5,6.9-15.5,15.5-15.5h384.2
			c8.5,0,15.5,6.9,15.5,15.5V373.1z"/>
	</g>
</g>
<g>
	<g>
		<path fill="#58A4EF" d="M441.6,98.9H147c-4.2,0-7.6,3.4-7.6,7.6s3.4,7.6,7.6,7.6h287v230.6H75.6V114.1h35.9c4.2,0,7.6-3.4,7.6-7.6
			s-3.4-7.6-7.6-7.6H68c-4.2,0-7.6,3.4-7.6,7.6v245.8c0,4.2,3.4,7.6,7.6,7.6h373.6c4.2,0,7.6-3.4,7.6-7.6V106.5
			C449.2,102.3,445.8,98.9,441.6,98.9z"/>
	</g>
</g>
</svg>
